<?xml version="1.0" encoding="UTF-8"?>
<svg width="71px" height="27px" viewBox="0 0 71 27" version="1.1" xmlns="http://www.w3.org/2000/svg" xmlns:xlink="http://www.w3.org/1999/xlink">
    <title>icon-paste-value</title>
    <g id="icon-paste-value" stroke="none" stroke-width="1" fill="none" fill-rule="evenodd">
        <g id="Combined-Shape-2" transform="translate(21.384282, 9.589051)" fill="#F0F0F0">
            <path d="M9.864,2.196 C10.168,2.196 10.468,2.228 10.764,2.292 C11.06,2.356 11.326,2.46 11.562,2.604 C11.798,2.748 11.988,2.934 12.132,3.162 C12.276,3.39 12.348,3.668 12.348,3.996 L12.348,3.996 L12.348,7.188 L12.352125,7.305 C12.360375,7.413 12.381,7.494 12.414,7.548 C12.458,7.62 12.544,7.656 12.672,7.656 L12.672,7.656 L12.816,7.656 L12.8746667,7.65333333 C12.9155556,7.64977778 12.96,7.64266667 13.008,7.632 L13.008,7.632 L13.008,8.58 L12.9553333,8.59666667 C12.9171111,8.60822222 12.8726667,8.62066667 12.822,8.634 C12.746,8.654 12.668,8.672 12.588,8.688 C12.508,8.704 12.428,8.716 12.348,8.724 C12.268,8.732 12.2,8.736 12.144,8.736 C11.864,8.736 11.632,8.68 11.448,8.568 C11.264,8.456 11.144,8.26 11.088,7.98 C10.816,8.244 10.482,8.436 10.086,8.556 C9.69,8.676 9.308,8.736 8.94,8.736 C8.66,8.736 8.392,8.698 8.136,8.622 C7.88,8.546 7.654,8.434 7.458,8.286 C7.262,8.138 7.106,7.95 6.99,7.722 C6.874,7.494 6.816,7.228 6.816,6.924 C6.816,6.54 6.886,6.228 7.026,5.988 C7.166,5.748 7.35,5.56 7.578,5.424 C7.806,5.288 8.062,5.19 8.346,5.13 C8.63,5.07 8.916,5.024 9.204,4.992 C9.452,4.944 9.688,4.91 9.912,4.89 C10.136,4.87 10.334,4.836 10.506,4.788 C10.678,4.74 10.814,4.666 10.914,4.566 C11.014,4.466 11.064,4.316 11.064,4.116 C11.064,3.94 11.022,3.796 10.938,3.684 C10.854,3.572 10.75,3.486 10.626,3.426 C10.502,3.366 10.364,3.326 10.212,3.306 C10.06,3.286 9.916,3.276 9.78,3.276 C9.396,3.276 9.08,3.356 8.832,3.516 C8.584,3.676 8.444,3.924 8.412,4.26 L8.412,4.26 L7.044,4.26 L7.062,4.06566667 C7.102,3.75122222 7.192,3.484 7.332,3.264 C7.5,3 7.714,2.788 7.974,2.628 C8.234,2.468 8.528,2.356 8.856,2.292 C9.184,2.228 9.52,2.196 9.864,2.196 Z M17.484,2.364 L17.484,6.168 L17.488875,6.3645 C17.511625,6.8055 17.614,7.124 17.796,7.32 C18.004,7.544 18.296,7.656 18.672,7.656 C18.96,7.656 19.2,7.612 19.392,7.524 C19.584,7.436 19.74,7.318 19.86,7.17 C19.98,7.022 20.066,6.844 20.118,6.636 C20.17,6.428 20.196,6.204 20.196,5.964 L20.196,5.964 L20.196,2.364 L21.564,2.364 L21.564,8.568 L20.22,8.568 L20.22,7.704 L20.196,7.704 L20.1051667,7.85483333 C19.9423889,8.09761111 19.7226667,8.29733333 19.446,8.454 C19.114,8.642 18.776,8.736 18.432,8.736 C17.616,8.736 17.026,8.534 16.662,8.13 C16.298,7.726 16.116,7.116 16.116,6.3 L16.116,6.3 L16.116,2.364 L17.484,2.364 Z M25.404,2.196 C25.892,2.196 26.33,2.298 26.718,2.502 C27.106,2.706 27.428,2.976 27.684,3.312 C27.94,3.648 28.126,4.034 28.242,4.47 C28.358,4.906 28.388,5.356 28.332,5.82 L28.332,5.82 L23.772,5.82 L23.778375,5.9985 C23.791125,6.1755 23.823,6.348 23.874,6.516 C23.942,6.74 24.044,6.936 24.18,7.104 C24.316,7.272 24.488,7.406 24.696,7.506 C24.904,7.606 25.152,7.656 25.44,7.656 C25.84,7.656 26.162,7.57 26.406,7.398 C26.65,7.226 26.832,6.968 26.952,6.624 L26.952,6.624 L28.248,6.624 L28.19856,6.82128 C28.12432,7.07856 28.0168,7.3128 27.876,7.524 C27.7,7.788 27.488,8.01 27.24,8.19 C26.992,8.37 26.714,8.506 26.406,8.598 C26.098,8.69 25.776,8.736 25.44,8.736 C24.952,8.736 24.52,8.656 24.144,8.496 C23.768,8.336 23.45,8.112 23.19,7.824 C22.93,7.536 22.734,7.192 22.602,6.792 C22.47,6.392 22.404,5.952 22.404,5.472 C22.404,5.032 22.474,4.614 22.614,4.218 C22.754,3.822 22.954,3.474 23.214,3.174 C23.474,2.874 23.788,2.636 24.156,2.46 C24.524,2.284 24.94,2.196 25.404,2.196 Z M1.56,1.24344979e-14 L3.708,6.78 L3.732,6.78 L5.928,1.24344979e-14 L7.452,1.24344979e-14 L4.524,8.568 L2.856,8.568 L3.55271368e-15,1.24344979e-14 L1.56,1.24344979e-14 Z M14.928,1.24344979e-14 L14.928,8.568 L13.56,8.568 L13.56,1.24344979e-14 L14.928,1.24344979e-14 Z M10.98,5.46 L10.84944,5.53512 C10.66768,5.62664 10.4552,5.6836 10.212,5.706 C9.908,5.734 9.604,5.776 9.3,5.832 C9.156,5.856 9.016,5.89 8.88,5.934 C8.744,5.978 8.624,6.038 8.52,6.114 C8.416,6.19 8.334,6.29 8.274,6.414 C8.214,6.538 8.184,6.688 8.184,6.864 C8.184,7.016 8.228,7.144 8.316,7.248 C8.404,7.352 8.51,7.434 8.634,7.494 C8.758,7.554 8.894,7.596 9.042,7.62 C9.19,7.644 9.324,7.656 9.444,7.656 C9.596,7.656 9.76,7.636 9.936,7.596 C10.112,7.556 10.278,7.488 10.434,7.392 C10.59,7.296 10.72,7.174 10.824,7.026 C10.928,6.878 10.98,6.696 10.98,6.48 L10.98,6.48 L10.98,5.46 Z M25.404,3.276 C25.164,3.276 24.946,3.318 24.75,3.402 C24.554,3.486 24.386,3.602 24.246,3.75 C24.106,3.898 23.994,4.072 23.91,4.272 C23.826,4.472 23.78,4.688 23.772,4.92 L23.772,4.92 L26.964,4.92 C26.948,4.704 26.902,4.496 26.826,4.296 C26.75,4.096 26.646,3.922 26.514,3.774 C26.382,3.626 26.222,3.506 26.034,3.414 C25.846,3.322 25.636,3.276 25.404,3.276 Z" id="Combined-Shape"></path>
        </g>
    </g>
</svg>