<?xml version="1.0" encoding="UTF-8"?>
<svg width="71px" height="27px" viewBox="0 0 71 27" version="1.1" xmlns="http://www.w3.org/2000/svg" xmlns:xlink="http://www.w3.org/1999/xlink">
    <title>icon-all</title>
    <g id="icon-all" stroke="none" stroke-width="1" fill="none" fill-rule="evenodd">
        <g id="Combined-Shape-2" transform="translate(14.000000, 8.000000)" fill="#F0F0F0">
            <path d="M8.916,2.568 L10.536,7.2 L10.56,7.2 L12.132,2.568 L13.56,2.568 L11.148,9.108 L11.0366667,9.384 C10.9628889,9.56533333 10.89,9.74133333 10.818,9.912 C10.71,10.168 10.578,10.394 10.422,10.59 C10.266,10.786 10.072,10.942 9.84,11.058 C9.608,11.174 9.312,11.232 8.952,11.232 C8.632,11.232 8.316,11.208 8.004,11.16 L8.004,11.16 L8.004,10.008 L8.169,10.0335 L8.169,10.0335 L8.328,10.062 C8.432,10.082 8.54,10.092 8.652,10.092 C8.812,10.092 8.944,10.072 9.048,10.032 C9.152,9.992 9.238,9.934 9.306,9.858 C9.374,9.782 9.432,9.692 9.48,9.588 C9.528,9.484 9.572,9.364 9.612,9.228 L9.612,9.228 L9.768,8.748 L7.416,2.568 L8.916,2.568 Z M3.456,-8.8817842e-15 C3.904,-8.8817842e-15 4.326,0.058 4.722,0.174 C5.118,0.29 5.466,0.464 5.766,0.696 C6.066,0.928 6.304,1.214 6.48,1.554 C6.656,1.894 6.744,2.288 6.744,2.736 L6.744,2.736 L5.244,2.736 L5.22518519,2.558 C5.16039506,2.09933333 4.97866667,1.76866667 4.68,1.566 C4.344,1.338 3.916,1.224 3.396,1.224 C3.22,1.224 3.04,1.242 2.856,1.278 C2.672,1.314 2.504,1.374 2.352,1.458 C2.2,1.542 2.074,1.656 1.974,1.8 C1.874,1.944 1.824,2.124 1.824,2.34 C1.824,2.644 1.918,2.882 2.106,3.054 C2.294,3.226 2.54,3.356 2.844,3.444 C2.876,3.452 3.002,3.486 3.222,3.546 C3.442,3.606 3.688,3.672 3.96,3.744 C4.232,3.816 4.498,3.886 4.758,3.954 C5.018,4.022 5.204,4.072 5.316,4.104 C5.596,4.192 5.84,4.312 6.048,4.464 C6.256,4.616 6.43,4.79 6.57,4.986 C6.71,5.182 6.814,5.392 6.882,5.616 C6.95,5.84 6.984,6.064 6.984,6.288 C6.984,6.768 6.886,7.178 6.69,7.518 C6.494,7.858 6.236,8.136 5.916,8.352 C5.596,8.568 5.232,8.726 4.824,8.826 C4.416,8.926 4,8.976 3.576,8.976 C3.088,8.976 2.628,8.916 2.196,8.796 C1.764,8.676 1.388,8.492 1.068,8.244 C0.748,7.996 0.492,7.678 0.3,7.29 C0.108,6.902 0.008,6.444 -8.8817842e-16,5.916 L-8.8817842e-16,5.916 L1.5,5.916 L1.50672,6.10704 C1.52464,6.35408 1.5784,6.5704 1.668,6.756 C1.78,6.988 1.936,7.178 2.136,7.326 C2.336,7.474 2.566,7.582 2.826,7.65 C3.086,7.718 3.368,7.752 3.672,7.752 C4,7.752 4.28,7.714 4.512,7.638 C4.744,7.562 4.932,7.464 5.076,7.344 C5.22,7.224 5.324,7.086 5.388,6.93 C5.452,6.774 5.484,6.616 5.484,6.456 C5.484,6.128 5.41,5.886 5.262,5.73 C5.114,5.574 4.952,5.464 4.776,5.4 C4.472,5.288 4.118,5.182 3.714,5.082 C3.31,4.982 2.812,4.852 2.22,4.692 C1.852,4.596 1.546,4.47 1.302,4.314 C1.058,4.158 0.864,3.984 0.72,3.792 C0.576,3.6 0.474,3.396 0.414,3.18 C0.354,2.964 0.324,2.744 0.324,2.52 C0.324,2.088 0.414,1.714 0.594,1.398 C0.774,1.082 1.012,0.82 1.308,0.612 C1.604,0.404 1.94,0.25 2.316,0.15 C2.692,0.05 3.072,-8.8817842e-15 3.456,-8.8817842e-15 Z M23.976,2.4 C24.336,2.4 24.678,2.446 25.002,2.538 C25.326,2.63 25.614,2.768 25.866,2.952 C26.118,3.136 26.324,3.368 26.484,3.648 C26.644,3.928 26.74,4.26 26.772,4.644 L26.772,4.644 L25.404,4.644 L25.374,4.48518367 C25.302,4.17906122 25.158,3.942 24.942,3.774 C24.69,3.578 24.372,3.48 23.988,3.48 C23.812,3.48 23.624,3.51 23.424,3.57 C23.224,3.63 23.04,3.742 22.872,3.906 C22.704,4.07 22.564,4.298 22.452,4.59 C22.34,4.882 22.284,5.264 22.284,5.736 C22.284,5.992 22.314,6.248 22.374,6.504 C22.434,6.76 22.53,6.988 22.662,7.188 C22.794,7.388 22.964,7.55 23.172,7.674 C23.38,7.798 23.632,7.86 23.928,7.86 C24.328,7.86 24.658,7.736 24.918,7.488 C25.178,7.24 25.34,6.892 25.404,6.444 L25.404,6.444 L26.772,6.444 L26.72826,6.6807 C26.58102,7.3737 26.2896,7.9128 25.854,8.298 C25.37,8.726 24.728,8.94 23.928,8.94 C23.44,8.94 23.01,8.858 22.638,8.694 C22.266,8.53 21.952,8.306 21.696,8.022 C21.44,7.738 21.246,7.4 21.114,7.008 C20.982,6.616 20.916,6.192 20.916,5.736 C20.916,5.272 20.98,4.836 21.108,4.428 C21.236,4.02 21.428,3.666 21.684,3.366 C21.94,3.066 22.258,2.83 22.638,2.658 C23.018,2.486 23.464,2.4 23.976,2.4 Z M17.58,2.4 C18.26,2.4 18.796,2.576 19.188,2.928 C19.58,3.28 19.776,3.808 19.776,4.512 L19.776,4.512 L19.776,8.772 L18.408,8.772 L18.408,4.872 L18.397875,4.69528125 C18.364625,4.29759375 18.264,4.0025 18.096,3.81 C17.904,3.59 17.604,3.48 17.196,3.48 C16.964,3.48 16.756,3.522 16.572,3.606 C16.388,3.69 16.232,3.806 16.104,3.954 C15.976,4.102 15.876,4.276 15.804,4.476 C15.732,4.676 15.696,4.888 15.696,5.112 L15.696,5.112 L15.696,8.772 L14.328,8.772 L14.328,2.568 L15.624,2.568 L15.624,3.48 L15.648,3.504 L15.7573333,3.33816667 C15.9484444,3.07205556 16.184,2.85733333 16.464,2.694 C16.8,2.498 17.172,2.4 17.58,2.4 Z M35.304,0.204 L38.604,8.772 L36.996,8.772 L36.192,6.504 L32.772,6.504 L31.968,8.772 L30.42,8.772 L33.708,0.204 L35.304,0.204 Z M40.632,0.204 L40.632,8.772 L39.264,8.772 L39.264,0.204 L40.632,0.204 Z M43.524,0.204 L43.524,8.772 L42.156,8.772 L42.156,0.204 L43.524,0.204 Z M34.512,1.68 L34.476,1.68 L33.18,5.364 L35.796,5.364 L34.512,1.68 Z" id="Combined-Shape"></path>
        </g>
    </g>
</svg>