<?xml version="1.0" encoding="UTF-8"?>
<svg width="71px" height="27px" viewBox="0 0 71 27" version="1.1" xmlns="http://www.w3.org/2000/svg" xmlns:xlink="http://www.w3.org/1999/xlink">
    <title>icon-paste-to-all</title>
    <g id="icon-paste-to-all" stroke="none" stroke-width="1" fill="none" fill-rule="evenodd">
        <g id="Combined-Shape-2" transform="translate(6.882282, 9.589051)" fill="#F0F0F0">
            <path d="M10.224,2.196 C10.528,2.196 10.828,2.228 11.124,2.292 C11.42,2.356 11.686,2.46 11.922,2.604 C12.158,2.748 12.348,2.934 12.492,3.162 C12.636,3.39 12.708,3.668 12.708,3.996 L12.708,3.996 L12.708,7.188 L12.712125,7.305 C12.720375,7.413 12.741,7.494 12.774,7.548 C12.818,7.62 12.904,7.656 13.032,7.656 L13.032,7.656 L13.176,7.656 L13.2346667,7.65333333 C13.2755556,7.64977778 13.32,7.64266667 13.368,7.632 L13.368,7.632 L13.368,8.58 L13.3153333,8.59666667 C13.2771111,8.60822222 13.2326667,8.62066667 13.182,8.634 C13.106,8.654 13.028,8.672 12.948,8.688 C12.868,8.704 12.788,8.716 12.708,8.724 C12.628,8.732 12.56,8.736 12.504,8.736 C12.224,8.736 11.992,8.68 11.808,8.568 C11.624,8.456 11.504,8.26 11.448,7.98 C11.176,8.244 10.842,8.436 10.446,8.556 C10.05,8.676 9.668,8.736 9.3,8.736 C9.02,8.736 8.752,8.698 8.496,8.622 C8.24,8.546 8.014,8.434 7.818,8.286 C7.622,8.138 7.466,7.95 7.35,7.722 C7.234,7.494 7.176,7.228 7.176,6.924 C7.176,6.54 7.246,6.228 7.386,5.988 C7.526,5.748 7.71,5.56 7.938,5.424 C8.166,5.288 8.422,5.19 8.706,5.13 C8.99,5.07 9.276,5.024 9.564,4.992 C9.812,4.944 10.048,4.91 10.272,4.89 C10.496,4.87 10.694,4.836 10.866,4.788 C11.038,4.74 11.174,4.666 11.274,4.566 C11.374,4.466 11.424,4.316 11.424,4.116 C11.424,3.94 11.382,3.796 11.298,3.684 C11.214,3.572 11.11,3.486 10.986,3.426 C10.862,3.366 10.724,3.326 10.572,3.306 C10.42,3.286 10.276,3.276 10.14,3.276 C9.756,3.276 9.44,3.356 9.192,3.516 C8.944,3.676 8.804,3.924 8.772,4.26 L8.772,4.26 L7.404,4.26 L7.422,4.06566667 C7.462,3.75122222 7.552,3.484 7.692,3.264 C7.86,3 8.074,2.788 8.334,2.628 C8.594,2.468 8.888,2.356 9.216,2.292 C9.544,2.228 9.88,2.196 10.224,2.196 Z M16.272,2.196 C16.592,2.196 16.898,2.23 17.19,2.298 C17.482,2.366 17.746,2.476 17.982,2.628 C18.218,2.78 18.414,2.978 18.57,3.222 C18.726,3.466 18.824,3.76 18.864,4.104 L18.864,4.104 L17.436,4.104 L17.4033061,3.97004082 C17.3273878,3.71534694 17.1882857,3.54 16.986,3.444 C16.75,3.332 16.48,3.276 16.176,3.276 C16.08,3.276 15.966,3.284 15.834,3.3 C15.702,3.316 15.578,3.346 15.462,3.39 C15.346,3.434 15.248,3.498 15.168,3.582 C15.088,3.666 15.048,3.776 15.048,3.912 C15.048,4.08 15.106,4.216 15.222,4.32 C15.338,4.424 15.49,4.51 15.678,4.578 C15.866,4.646 16.08,4.704 16.32,4.752 C16.56,4.8 16.808,4.852 17.064,4.908 C17.312,4.964 17.556,5.032 17.796,5.112 C18.036,5.192 18.25,5.3 18.438,5.436 C18.626,5.572 18.778,5.744 18.894,5.952 C19.01,6.16 19.068,6.416 19.068,6.72 C19.068,7.088 18.984,7.4 18.816,7.656 C18.648,7.912 18.43,8.12 18.162,8.28 C17.894,8.44 17.596,8.556 17.268,8.628 C16.94,8.7 16.616,8.736 16.296,8.736 C15.904,8.736 15.542,8.692 15.21,8.604 C14.878,8.516 14.59,8.382 14.346,8.202 C14.102,8.022 13.91,7.798 13.77,7.53 C13.63,7.262 13.556,6.944 13.548,6.576 L13.548,6.576 L14.916,6.576 L14.93625,6.720375 C14.99575,7.044125 15.141,7.276 15.372,7.416 C15.636,7.576 15.952,7.656 16.32,7.656 C16.448,7.656 16.594,7.646 16.758,7.626 C16.922,7.606 17.076,7.568 17.22,7.512 C17.364,7.456 17.482,7.374 17.574,7.266 C17.666,7.158 17.708,7.016 17.7,6.84 C17.692,6.664 17.628,6.52 17.508,6.408 C17.388,6.296 17.234,6.206 17.046,6.138 C16.858,6.07 16.644,6.012 16.404,5.964 C16.164,5.916 15.92,5.864 15.672,5.808 C15.416,5.752 15.17,5.684 14.934,5.604 C14.698,5.524 14.486,5.416 14.298,5.28 C14.11,5.144 13.96,4.97 13.848,4.758 C13.736,4.546 13.68,4.284 13.68,3.972 C13.68,3.636 13.762,3.354 13.926,3.126 C14.09,2.898 14.298,2.714 14.55,2.574 C14.802,2.434 15.082,2.336 15.39,2.28 C15.698,2.224 15.992,2.196 16.272,2.196 Z M26.208,2.196 C26.696,2.196 27.134,2.298 27.522,2.502 C27.91,2.706 28.232,2.976 28.488,3.312 C28.744,3.648 28.93,4.034 29.046,4.47 C29.162,4.906 29.192,5.356 29.136,5.82 L29.136,5.82 L24.576,5.82 L24.582375,5.9985 C24.595125,6.1755 24.627,6.348 24.678,6.516 C24.746,6.74 24.848,6.936 24.984,7.104 C25.12,7.272 25.292,7.406 25.5,7.506 C25.708,7.606 25.956,7.656 26.244,7.656 C26.644,7.656 26.966,7.57 27.21,7.398 C27.454,7.226 27.636,6.968 27.756,6.624 L27.756,6.624 L29.052,6.624 L29.00256,6.82128 C28.92832,7.07856 28.8208,7.3128 28.68,7.524 C28.504,7.788 28.292,8.01 28.044,8.19 C27.796,8.37 27.518,8.506 27.21,8.598 C26.902,8.69 26.58,8.736 26.244,8.736 C25.756,8.736 25.324,8.656 24.948,8.496 C24.572,8.336 24.254,8.112 23.994,7.824 C23.734,7.536 23.538,7.192 23.406,6.792 C23.274,6.392 23.208,5.952 23.208,5.472 C23.208,5.032 23.278,4.614 23.418,4.218 C23.558,3.822 23.758,3.474 24.018,3.174 C24.278,2.874 24.592,2.636 24.96,2.46 C25.328,2.284 25.744,2.196 26.208,2.196 Z M39.156,2.196 C39.652,2.196 40.094,2.278 40.482,2.442 C40.87,2.606 41.198,2.832 41.466,3.12 C41.734,3.408 41.938,3.752 42.078,4.152 C42.218,4.552 42.288,4.988 42.288,5.46 C42.288,5.94 42.218,6.38 42.078,6.78 C41.938,7.18 41.734,7.524 41.466,7.812 C41.198,8.1 40.87,8.326 40.482,8.49 C40.094,8.654 39.652,8.736 39.156,8.736 C38.66,8.736 38.218,8.654 37.83,8.49 C37.442,8.326 37.114,8.1 36.846,7.812 C36.578,7.524 36.374,7.18 36.234,6.78 C36.094,6.38 36.024,5.94 36.024,5.46 C36.024,4.988 36.094,4.552 36.234,4.152 C36.374,3.752 36.578,3.408 36.846,3.12 C37.114,2.832 37.442,2.606 37.83,2.442 C38.218,2.278 38.66,2.196 39.156,2.196 Z M21.588,0.504 L21.588,2.364 L22.824,2.364 L22.824,3.384 L21.588,3.384 L21.588,6.696 L21.59,6.83333333 C21.5926667,6.92044444 21.598,6.99866667 21.606,7.068 C21.618,7.172 21.646,7.26 21.69,7.332 C21.734,7.404 21.8,7.458 21.888,7.494 C21.976,7.53 22.096,7.548 22.248,7.548 C22.344,7.548 22.44,7.546 22.536,7.542 C22.632,7.538 22.728,7.524 22.824,7.5 L22.824,7.5 L22.824,8.556 L22.599,8.58 L22.599,8.58 L22.38,8.604 C22.236,8.62 22.088,8.628 21.936,8.628 C21.576,8.628 21.286,8.594 21.066,8.526 C20.846,8.458 20.674,8.358 20.55,8.226 C20.426,8.094 20.342,7.928 20.298,7.728 C20.254,7.528 20.228,7.3 20.22,7.044 L20.22,7.044 L20.22,3.384 L19.188,3.384 L19.188,2.364 L20.22,2.364 L20.22,0.504 L21.588,0.504 Z M34.392,0.504 L34.392,2.364 L35.628,2.364 L35.628,3.384 L34.392,3.384 L34.392,6.696 L34.394,6.83333333 C34.3966667,6.92044444 34.402,6.99866667 34.41,7.068 C34.422,7.172 34.45,7.26 34.494,7.332 C34.538,7.404 34.604,7.458 34.692,7.494 C34.78,7.53 34.9,7.548 35.052,7.548 C35.148,7.548 35.244,7.546 35.34,7.542 C35.436,7.538 35.532,7.524 35.628,7.5 L35.628,7.5 L35.628,8.556 L35.403,8.58 L35.403,8.58 L35.184,8.604 C35.04,8.62 34.892,8.628 34.74,8.628 C34.38,8.628 34.09,8.594 33.87,8.526 C33.65,8.458 33.478,8.358 33.354,8.226 C33.23,8.094 33.146,7.928 33.102,7.728 C33.058,7.528 33.032,7.3 33.024,7.044 L33.024,7.044 L33.024,3.384 L31.992,3.384 L31.992,2.364 L33.024,2.364 L33.024,0.504 L34.392,0.504 Z M3.78,1.24344979e-14 L4.03371429,0.0053877551 C4.52742857,0.0269387755 4.93885714,0.113142857 5.268,0.264 C5.652,0.44 5.948,0.66 6.156,0.924 C6.364,1.188 6.506,1.476 6.582,1.788 C6.658,2.1 6.696,2.388 6.696,2.652 C6.696,2.916 6.658,3.202 6.582,3.51 C6.506,3.818 6.364,4.104 6.156,4.368 C5.948,4.632 5.652,4.85 5.268,5.022 C4.884,5.194 4.388,5.28 3.78,5.28 L3.78,5.28 L1.5,5.28 L1.5,8.568 L1.77635684e-15,8.568 L1.77635684e-15,1.24344979e-14 L3.78,1.24344979e-14 Z M50.244,1.24344979e-14 L53.544,8.568 L51.936,8.568 L51.132,6.3 L47.712,6.3 L46.908,8.568 L45.36,8.568 L48.648,1.24344979e-14 L50.244,1.24344979e-14 Z M55.272,1.24344979e-14 L55.272,8.568 L53.904,8.568 L53.904,1.24344979e-14 L55.272,1.24344979e-14 Z M57.864,1.24344979e-14 L57.864,8.568 L56.496,8.568 L56.496,1.24344979e-14 L57.864,1.24344979e-14 Z M11.34,5.46 L11.20944,5.53512 C11.02768,5.62664 10.8152,5.6836 10.572,5.706 C10.268,5.734 9.964,5.776 9.66,5.832 C9.516,5.856 9.376,5.89 9.24,5.934 C9.104,5.978 8.984,6.038 8.88,6.114 C8.776,6.19 8.694,6.29 8.634,6.414 C8.574,6.538 8.544,6.688 8.544,6.864 C8.544,7.016 8.588,7.144 8.676,7.248 C8.764,7.352 8.87,7.434 8.994,7.494 C9.118,7.554 9.254,7.596 9.402,7.62 C9.55,7.644 9.684,7.656 9.804,7.656 C9.956,7.656 10.12,7.636 10.296,7.596 C10.472,7.556 10.638,7.488 10.794,7.392 C10.95,7.296 11.08,7.174 11.184,7.026 C11.288,6.878 11.34,6.696 11.34,6.48 L11.34,6.48 L11.34,5.46 Z M39.156,3.276 C38.852,3.276 38.588,3.34 38.364,3.468 C38.14,3.596 37.956,3.762 37.812,3.966 C37.668,4.17 37.562,4.404 37.494,4.668 C37.426,4.932 37.392,5.196 37.392,5.46 C37.392,5.732 37.426,5.998 37.494,6.258 C37.562,6.518 37.668,6.752 37.812,6.96 C37.956,7.168 38.14,7.336 38.364,7.464 C38.588,7.592 38.852,7.656 39.156,7.656 C39.46,7.656 39.724,7.592 39.948,7.464 C40.172,7.336 40.356,7.168 40.5,6.96 C40.644,6.752 40.75,6.518 40.818,6.258 C40.886,5.998 40.92,5.732 40.92,5.46 C40.92,5.196 40.886,4.932 40.818,4.668 C40.75,4.404 40.644,4.17 40.5,3.966 C40.356,3.762 40.172,3.596 39.948,3.468 C39.724,3.34 39.46,3.276 39.156,3.276 Z M49.452,1.476 L49.416,1.476 L48.12,5.16 L50.736,5.16 L49.452,1.476 Z M26.208,3.276 C25.968,3.276 25.75,3.318 25.554,3.402 C25.358,3.486 25.19,3.602 25.05,3.75 C24.91,3.898 24.798,4.072 24.714,4.272 C24.63,4.472 24.584,4.688 24.576,4.92 L24.576,4.92 L27.768,4.92 C27.752,4.704 27.706,4.496 27.63,4.296 C27.554,4.096 27.45,3.922 27.318,3.774 C27.186,3.626 27.026,3.506 26.838,3.414 C26.65,3.322 26.44,3.276 26.208,3.276 Z M3.72,1.224 L1.5,1.224 L1.5,4.056 L3.696,4.056 C3.864,4.056 4.036,4.032 4.212,3.984 C4.388,3.936 4.55,3.858 4.698,3.75 C4.846,3.642 4.966,3.498 5.058,3.318 C5.15,3.138 5.196,2.912 5.196,2.64 C5.196,2.36 5.156,2.128 5.076,1.944 C4.996,1.76 4.888,1.614 4.752,1.506 C4.616,1.398 4.46,1.324 4.284,1.284 C4.108,1.244 3.92,1.224 3.72,1.224 L3.72,1.224 Z" id="Combined-Shape"></path>
        </g>
    </g>
</svg>