<?xml version="1.0" encoding="UTF-8"?>
<svg width="27px" height="27px" viewBox="0 0 27 27" version="1.1" xmlns="http://www.w3.org/2000/svg" xmlns:xlink="http://www.w3.org/1999/xlink">
    <title>icon-key-next-object</title>
    <g id="icon-key-next-object" stroke="none" stroke-width="1" fill="none" fill-rule="evenodd">
        <g id="Group" transform="translate(12.951278, 8.773500)" fill="#FFFFFF" fill-rule="nonzero">
            <path d="M1.0485,4.9515 L3.6765,4.9515 C4.07690644,4.9515 4.4015,5.27609356 4.4015,5.6765 C4.4015,6.07690644 4.07690644,6.4015 3.6765,6.4015 L1.0485,6.4015 L1.0485,6.4015 L1.0485,4.9515 Z" id="Line"></path>
            <path d="M-2.4515,2.4515 L3.1765,2.4515 C3.57690644,2.4515 3.9015,2.77609356 3.9015,3.1765 C3.9015,3.57690644 3.57690644,3.9015 3.1765,3.9015 L-2.4515,3.9015 L-2.4515,3.9015 L-2.4515,2.4515 Z" id="Line" transform="translate(0.725000, 3.176500) rotate(-90.000000) translate(-0.725000, -3.176500) "></path>
        </g>
        <path d="M13.5,4 C18.7467051,4 23,8.25329488 23,13.5 C23,18.7467051 18.7467051,23 13.5,23 C13.1761293,23 12.9135802,22.7374509 12.9135802,22.4135802 C12.9135802,22.0897096 13.1761293,21.8271605 13.5,21.8271605 C18.0989637,21.8271605 21.8271605,18.0989637 21.8271605,13.5 C21.8271605,8.90103625 18.0989637,5.17283951 13.5,5.17283951 C8.90103625,5.17283951 5.17283951,8.90103625 5.17283951,13.5 C5.17283951,15.0372664 5.58947857,16.5119607 6.36654079,17.7985415 C6.5339804,18.075771 6.4449781,18.4362465 6.1677486,18.6036861 C5.89051909,18.7711258 5.53004355,18.6821235 5.36260394,18.4048939 C4.47580479,16.9366219 4,15.2525105 4,13.5 C4,8.25329488 8.25329488,4 13.5,4 Z" id="Path" fill="#979797" fill-rule="nonzero"></path>
        <path d="M8.99989808,16.7911526 L8.99977778,17.725 L8.99977778,17.725 L8.99977778,19.175 L8.99988837,19.9588367 C8.99992733,20.2349791 8.7761013,20.4588683 8.49995892,20.4589072 C8.42572278,20.4589177 8.35241581,20.4423975 8.28535997,20.410546 L4.95081843,18.8266388 C4.70138523,18.708158 4.59522731,18.4099048 4.71370808,18.1604716 C4.76309556,18.056498 4.84684478,17.9727487 4.95081843,17.9233612 L8.28536968,16.3394494 C8.53480287,16.2209686 8.83305607,16.3271266 8.95153684,16.5765597 C8.98338747,16.6436137 8.99990764,16.7169185 8.99989808,16.7911526 Z" id="Line" fill="#FFFFFF" fill-rule="nonzero" transform="translate(6.500000, 18.375000) rotate(-126.000000) translate(-6.500000, -18.375000) "></path>
    </g>
</svg>