<?xml version="1.0" encoding="UTF-8"?>
<svg width="71px" height="27px" viewBox="0 0 71 27" version="1.1" xmlns="http://www.w3.org/2000/svg" xmlns:xlink="http://www.w3.org/1999/xlink">
    <title>icon-replace-all</title>
    <g id="icon-replace-all" stroke="none" stroke-width="1" fill="none" fill-rule="evenodd">
        <g id="Combined-Shape-2" transform="translate(6.912282, 9.589051)" fill="#F0F0F0">
            <path d="M17.604,2.196 C18.092,2.196 18.518,2.282 18.882,2.454 C19.246,2.626 19.548,2.862 19.788,3.162 C20.028,3.462 20.208,3.812 20.328,4.212 C20.448,4.612 20.508,5.04 20.508,5.496 C20.508,5.912 20.454,6.316 20.346,6.708 C20.238,7.1 20.074,7.446 19.854,7.746 C19.634,8.046 19.356,8.286 19.02,8.466 C18.684,8.646 18.288,8.736 17.832,8.736 C17.632,8.736 17.432,8.718 17.232,8.682 C17.032,8.646 16.84,8.588 16.656,8.508 C16.472,8.428 16.302,8.326 16.146,8.202 C15.99,8.078 15.86,7.932 15.756,7.764 L15.756,7.764 L15.732,7.764 L15.732,10.86 L14.364,10.86 L14.364,2.364 L15.66,2.364 L15.66,3.204 L15.684,3.204 L15.7709388,3.05595918 C15.9541224,2.77236735 16.1931429,2.56371429 16.488,2.43 C16.832,2.274 17.204,2.196 17.604,2.196 Z M10.656,2.196 C11.144,2.196 11.582,2.298 11.97,2.502 C12.358,2.706 12.68,2.976 12.936,3.312 C13.192,3.648 13.378,4.034 13.494,4.47 C13.61,4.906 13.64,5.356 13.584,5.82 L13.584,5.82 L9.024,5.82 L9.030375,5.9985 C9.043125,6.1755 9.075,6.348 9.126,6.516 C9.194,6.74 9.296,6.936 9.432,7.104 C9.568,7.272 9.74,7.406 9.948,7.506 C10.156,7.606 10.404,7.656 10.692,7.656 C11.092,7.656 11.414,7.57 11.658,7.398 C11.902,7.226 12.084,6.968 12.204,6.624 L12.204,6.624 L13.5,6.624 L13.45056,6.82128 C13.37632,7.07856 13.2688,7.3128 13.128,7.524 C12.952,7.788 12.74,8.01 12.492,8.19 C12.244,8.37 11.966,8.506 11.658,8.598 C11.35,8.69 11.028,8.736 10.692,8.736 C10.204,8.736 9.772,8.656 9.396,8.496 C9.02,8.336 8.702,8.112 8.442,7.824 C8.182,7.536 7.986,7.192 7.854,6.792 C7.722,6.392 7.656,5.952 7.656,5.472 C7.656,5.032 7.726,4.614 7.866,4.218 C8.006,3.822 8.206,3.474 8.466,3.174 C8.726,2.874 9.04,2.636 9.408,2.46 C9.776,2.284 10.192,2.196 10.656,2.196 Z M26.664,2.196 C26.968,2.196 27.268,2.228 27.564,2.292 C27.86,2.356 28.126,2.46 28.362,2.604 C28.598,2.748 28.788,2.934 28.932,3.162 C29.076,3.39 29.148,3.668 29.148,3.996 L29.148,3.996 L29.148,7.188 L29.152125,7.305 C29.160375,7.413 29.181,7.494 29.214,7.548 C29.258,7.62 29.344,7.656 29.472,7.656 L29.472,7.656 L29.616,7.656 L29.6746667,7.65333333 C29.7155556,7.64977778 29.76,7.64266667 29.808,7.632 L29.808,7.632 L29.808,8.58 L29.7553333,8.59666667 C29.7171111,8.60822222 29.6726667,8.62066667 29.622,8.634 C29.546,8.654 29.468,8.672 29.388,8.688 C29.308,8.704 29.228,8.716 29.148,8.724 C29.068,8.732 29,8.736 28.944,8.736 C28.664,8.736 28.432,8.68 28.248,8.568 C28.064,8.456 27.944,8.26 27.888,7.98 C27.616,8.244 27.282,8.436 26.886,8.556 C26.49,8.676 26.108,8.736 25.74,8.736 C25.46,8.736 25.192,8.698 24.936,8.622 C24.68,8.546 24.454,8.434 24.258,8.286 C24.062,8.138 23.906,7.95 23.79,7.722 C23.674,7.494 23.616,7.228 23.616,6.924 C23.616,6.54 23.686,6.228 23.826,5.988 C23.966,5.748 24.15,5.56 24.378,5.424 C24.606,5.288 24.862,5.19 25.146,5.13 C25.43,5.07 25.716,5.024 26.004,4.992 C26.252,4.944 26.488,4.91 26.712,4.89 C26.936,4.87 27.134,4.836 27.306,4.788 C27.478,4.74 27.614,4.666 27.714,4.566 C27.814,4.466 27.864,4.316 27.864,4.116 C27.864,3.94 27.822,3.796 27.738,3.684 C27.654,3.572 27.55,3.486 27.426,3.426 C27.302,3.366 27.164,3.326 27.012,3.306 C26.86,3.286 26.716,3.276 26.58,3.276 C26.196,3.276 25.88,3.356 25.632,3.516 C25.384,3.676 25.244,3.924 25.212,4.26 L25.212,4.26 L23.844,4.26 L23.862,4.06566667 C23.902,3.75122222 23.992,3.484 24.132,3.264 C24.3,3 24.514,2.788 24.774,2.628 C25.034,2.468 25.328,2.356 25.656,2.292 C25.984,2.228 26.32,2.196 26.664,2.196 Z M33.084,2.196 C33.444,2.196 33.786,2.242 34.11,2.334 C34.434,2.426 34.722,2.564 34.974,2.748 C35.226,2.932 35.432,3.164 35.592,3.444 C35.752,3.724 35.848,4.056 35.88,4.44 L35.88,4.44 L34.512,4.44 L34.482,4.28118367 C34.41,3.97506122 34.266,3.738 34.05,3.57 C33.798,3.374 33.48,3.276 33.096,3.276 C32.92,3.276 32.732,3.306 32.532,3.366 C32.332,3.426 32.148,3.538 31.98,3.702 C31.812,3.866 31.672,4.094 31.56,4.386 C31.448,4.678 31.392,5.06 31.392,5.532 C31.392,5.788 31.422,6.044 31.482,6.3 C31.542,6.556 31.638,6.784 31.77,6.984 C31.902,7.184 32.072,7.346 32.28,7.47 C32.488,7.594 32.74,7.656 33.036,7.656 C33.436,7.656 33.766,7.532 34.026,7.284 C34.286,7.036 34.448,6.688 34.512,6.24 L34.512,6.24 L35.88,6.24 L35.83626,6.4767 C35.68902,7.1697 35.3976,7.7088 34.962,8.094 C34.478,8.522 33.836,8.736 33.036,8.736 C32.548,8.736 32.118,8.654 31.746,8.49 C31.374,8.326 31.06,8.102 30.804,7.818 C30.548,7.534 30.354,7.196 30.222,6.804 C30.09,6.412 30.024,5.988 30.024,5.532 C30.024,5.068 30.088,4.632 30.216,4.224 C30.344,3.816 30.536,3.462 30.792,3.162 C31.048,2.862 31.366,2.626 31.746,2.454 C32.126,2.282 32.572,2.196 33.084,2.196 Z M39.396,2.196 C39.884,2.196 40.322,2.298 40.71,2.502 C41.098,2.706 41.42,2.976 41.676,3.312 C41.932,3.648 42.118,4.034 42.234,4.47 C42.35,4.906 42.38,5.356 42.324,5.82 L42.324,5.82 L37.764,5.82 L37.770375,5.9985 C37.783125,6.1755 37.815,6.348 37.866,6.516 C37.934,6.74 38.036,6.936 38.172,7.104 C38.308,7.272 38.48,7.406 38.688,7.506 C38.896,7.606 39.144,7.656 39.432,7.656 C39.832,7.656 40.154,7.57 40.398,7.398 C40.642,7.226 40.824,6.968 40.944,6.624 L40.944,6.624 L42.24,6.624 L42.19056,6.82128 C42.11632,7.07856 42.0088,7.3128 41.868,7.524 C41.692,7.788 41.48,8.01 41.232,8.19 C40.984,8.37 40.706,8.506 40.398,8.598 C40.09,8.69 39.768,8.736 39.432,8.736 C38.944,8.736 38.512,8.656 38.136,8.496 C37.76,8.336 37.442,8.112 37.182,7.824 C36.922,7.536 36.726,7.192 36.594,6.792 C36.462,6.392 36.396,5.952 36.396,5.472 C36.396,5.032 36.466,4.614 36.606,4.218 C36.746,3.822 36.946,3.474 37.206,3.174 C37.466,2.874 37.78,2.636 38.148,2.46 C38.516,2.284 38.932,2.196 39.396,2.196 Z M4.092,4.08562073e-14 L4.34360331,0.00505785124 C5.16277686,0.0387768595 5.78690909,0.241090909 6.216,0.612 C6.688,1.02 6.924,1.588 6.924,2.316 C6.924,2.724 6.864,3.062 6.744,3.33 C6.624,3.598 6.484,3.814 6.324,3.978 C6.164,4.142 6.006,4.26 5.85,4.332 C5.694,4.404 5.58,4.452 5.508,4.476 L5.508,4.476 L5.508,4.5 L5.63933333,4.524 C5.72911111,4.54533333 5.82333333,4.57733333 5.922,4.62 C6.07,4.684 6.208,4.786 6.336,4.926 C6.464,5.066 6.57,5.248 6.654,5.472 C6.738,5.696 6.78,5.976 6.78,6.312 C6.78,6.816 6.818,7.274 6.894,7.686 C6.97,8.098 7.088,8.392 7.248,8.568 L7.248,8.568 L5.64,8.568 L5.564625,8.42625 C5.497875,8.28075 5.457,8.124 5.442,7.956 C5.422,7.732 5.412,7.516 5.412,7.308 C5.412,6.916 5.388,6.578 5.34,6.294 C5.292,6.01 5.204,5.774 5.076,5.586 C4.948,5.398 4.774,5.26 4.554,5.172 C4.334,5.084 4.052,5.04 3.708,5.04 L3.708,5.04 L1.5,5.04 L1.5,8.568 L2.30926389e-14,8.568 L2.30926389e-14,4.08562073e-14 L4.092,4.08562073e-14 Z M22.764,4.08562073e-14 L22.764,8.568 L21.396,8.568 L21.396,4.08562073e-14 L22.764,4.08562073e-14 Z M50.184,4.08562073e-14 L53.484,8.568 L51.876,8.568 L51.072,6.3 L47.652,6.3 L46.848,8.568 L45.3,8.568 L48.588,4.08562073e-14 L50.184,4.08562073e-14 Z M55.212,4.08562073e-14 L55.212,8.568 L53.844,8.568 L53.844,4.08562073e-14 L55.212,4.08562073e-14 Z M57.804,4.08562073e-14 L57.804,8.568 L56.436,8.568 L56.436,4.08562073e-14 L57.804,4.08562073e-14 Z M17.424,3.276 C16.848,3.276 16.414,3.476 16.122,3.876 C15.83,4.276 15.684,4.808 15.684,5.472 C15.684,5.784 15.722,6.074 15.798,6.342 C15.874,6.61 15.988,6.84 16.14,7.032 C16.292,7.224 16.474,7.376 16.686,7.488 C16.898,7.6 17.144,7.656 17.424,7.656 C17.736,7.656 18,7.592 18.216,7.464 C18.432,7.336 18.61,7.17 18.75,6.966 C18.89,6.762 18.99,6.53 19.05,6.27 C19.11,6.01 19.14,5.744 19.14,5.472 C19.14,5.192 19.104,4.92 19.032,4.656 C18.96,4.392 18.852,4.158 18.708,3.954 C18.564,3.75 18.384,3.586 18.168,3.462 C17.952,3.338 17.704,3.276 17.424,3.276 Z M27.78,5.46 L27.64944,5.53512 C27.46768,5.62664 27.2552,5.6836 27.012,5.706 C26.708,5.734 26.404,5.776 26.1,5.832 C25.956,5.856 25.816,5.89 25.68,5.934 C25.544,5.978 25.424,6.038 25.32,6.114 C25.216,6.19 25.134,6.29 25.074,6.414 C25.014,6.538 24.984,6.688 24.984,6.864 C24.984,7.016 25.028,7.144 25.116,7.248 C25.204,7.352 25.31,7.434 25.434,7.494 C25.558,7.554 25.694,7.596 25.842,7.62 C25.99,7.644 26.124,7.656 26.244,7.656 C26.396,7.656 26.56,7.636 26.736,7.596 C26.912,7.556 27.078,7.488 27.234,7.392 C27.39,7.296 27.52,7.174 27.624,7.026 C27.728,6.878 27.78,6.696 27.78,6.48 L27.78,6.48 L27.78,5.46 Z M49.392,1.476 L49.356,1.476 L48.06,5.16 L50.676,5.16 L49.392,1.476 Z M10.656,3.276 C10.416,3.276 10.198,3.318 10.002,3.402 C9.806,3.486 9.638,3.602 9.498,3.75 C9.358,3.898 9.246,4.072 9.162,4.272 C9.078,4.472 9.032,4.688 9.024,4.92 L9.024,4.92 L12.216,4.92 C12.2,4.704 12.154,4.496 12.078,4.296 C12.002,4.096 11.898,3.922 11.766,3.774 C11.634,3.626 11.474,3.506 11.286,3.414 C11.098,3.322 10.888,3.276 10.656,3.276 Z M39.396,3.276 C39.156,3.276 38.938,3.318 38.742,3.402 C38.546,3.486 38.378,3.602 38.238,3.75 C38.098,3.898 37.986,4.072 37.902,4.272 C37.818,4.472 37.772,4.688 37.764,4.92 L37.764,4.92 L40.956,4.92 C40.94,4.704 40.894,4.496 40.818,4.296 C40.742,4.096 40.638,3.922 40.506,3.774 C40.374,3.626 40.214,3.506 40.026,3.414 C39.838,3.322 39.628,3.276 39.396,3.276 Z M3.936,1.224 L1.5,1.224 L1.5,3.9 L3.96,3.9 C4.44,3.9 4.804,3.786 5.052,3.558 C5.3,3.33 5.424,2.988 5.424,2.532 C5.424,2.26 5.384,2.038 5.304,1.866 C5.224,1.694 5.114,1.56 4.974,1.464 C4.834,1.368 4.674,1.304 4.494,1.272 C4.314,1.24 4.128,1.224 3.936,1.224 L3.936,1.224 Z" id="Combined-Shape"></path>
        </g>
    </g>
</svg>