<?xml version="1.0" encoding="UTF-8"?>
<svg width="27px" height="27px" viewBox="0 0 27 27" version="1.1" xmlns="http://www.w3.org/2000/svg" xmlns:xlink="http://www.w3.org/1999/xlink">
    <title>icon-size</title>
    <g id="icon-size" stroke="none" stroke-width="1" fill="none" fill-rule="evenodd">
        <path d="M13.408,9 C13.856,9 14.278,9.058 14.674,9.174 C15.07,9.29 15.418,9.464 15.718,9.696 C16.018,9.928 16.256,10.214 16.432,10.554 C16.608,10.894 16.696,11.288 16.696,11.736 L16.696,11.736 L15.196,11.736 L15.1771852,11.558 C15.1123951,11.0993333 14.9306667,10.7686667 14.632,10.566 C14.296,10.338 13.868,10.224 13.348,10.224 C13.172,10.224 12.992,10.242 12.808,10.278 C12.624,10.314 12.456,10.374 12.304,10.458 C12.152,10.542 12.026,10.656 11.926,10.8 C11.826,10.944 11.776,11.124 11.776,11.34 C11.776,11.644 11.87,11.882 12.058,12.054 C12.246,12.226 12.492,12.356 12.796,12.444 C12.828,12.452 12.954,12.486 13.174,12.546 C13.394,12.606 13.64,12.672 13.912,12.744 C14.184,12.816 14.45,12.886 14.71,12.954 C14.97,13.022 15.156,13.072 15.268,13.104 C15.548,13.192 15.792,13.312 16,13.464 C16.208,13.616 16.382,13.79 16.522,13.986 C16.662,14.182 16.766,14.392 16.834,14.616 C16.902,14.84 16.936,15.064 16.936,15.288 C16.936,15.768 16.838,16.178 16.642,16.518 C16.446,16.858 16.188,17.136 15.868,17.352 C15.548,17.568 15.184,17.726 14.776,17.826 C14.368,17.926 13.952,17.976 13.528,17.976 C13.04,17.976 12.58,17.916 12.148,17.796 C11.716,17.676 11.34,17.492 11.02,17.244 C10.7,16.996 10.444,16.678 10.252,16.29 C10.06,15.902 9.96,15.444 9.952,14.916 L9.952,14.916 L11.452,14.916 L11.45872,15.10704 C11.47664,15.35408 11.5304,15.5704 11.62,15.756 C11.732,15.988 11.888,16.178 12.088,16.326 C12.288,16.474 12.518,16.582 12.778,16.65 C13.038,16.718 13.32,16.752 13.624,16.752 C13.952,16.752 14.232,16.714 14.464,16.638 C14.696,16.562 14.884,16.464 15.028,16.344 C15.172,16.224 15.276,16.086 15.34,15.93 C15.404,15.774 15.436,15.616 15.436,15.456 C15.436,15.128 15.362,14.886 15.214,14.73 C15.066,14.574 14.904,14.464 14.728,14.4 C14.424,14.288 14.07,14.182 13.666,14.082 C13.262,13.982 12.764,13.852 12.172,13.692 C11.804,13.596 11.498,13.47 11.254,13.314 C11.01,13.158 10.816,12.984 10.672,12.792 C10.528,12.6 10.426,12.396 10.366,12.18 C10.306,11.964 10.276,11.744 10.276,11.52 C10.276,11.088 10.366,10.714 10.546,10.398 C10.726,10.082 10.964,9.82 11.26,9.612 C11.556,9.404 11.892,9.25 12.268,9.15 C12.644,9.05 13.024,9 13.408,9 Z" id="Combined-Shape" fill="#F0F0F0"></path>
    </g>
</svg>