<?xml version="1.0" encoding="UTF-8"?>
<svg width="27px" height="27px" viewBox="0 0 27 27" version="1.1" xmlns="http://www.w3.org/2000/svg" xmlns:xlink="http://www.w3.org/1999/xlink">
    <title>icon-key-next-object</title>
    <g id="icon-key-next-object" stroke="none" stroke-width="1" fill="none" fill-rule="evenodd">
        <rect id="Rectangle" fill="#FFFFFF" fill-rule="nonzero" opacity="0.5" x="10" y="6" width="11" height="15" rx="0.686721563"></rect>
        <path d="M7.99989808,11.7911526 L7.99977778,12.725 L7.99977778,12.725 L10.6277778,12.725 C11.0281842,12.725 11.3527778,13.0495936 11.3527778,13.45 C11.3527778,13.8504064 11.0281842,14.175 10.6277778,14.175 L7.99977778,14.175 L7.99977778,14.175 L7.99988837,14.9588367 C7.99992733,15.2349791 7.7761013,15.4588683 7.49995892,15.4589072 C7.42572278,15.4589177 7.35241581,15.4423975 7.28535997,15.410546 L3.95081843,13.8266388 C3.70138523,13.708158 3.59522731,13.4099048 3.71370808,13.1604716 C3.76309556,13.056498 3.84684478,12.9727487 3.95081843,12.9233612 L7.28536968,11.3394494 C7.53480287,11.2209686 7.83305607,11.3271266 7.95153684,11.5765597 C7.98338747,11.6436137 7.99990764,11.7169185 7.99989808,11.7911526 Z" id="Line" fill="#FFFFFF" fill-rule="nonzero"></path>
    </g>
</svg>