<?xml version="1.0" encoding="UTF-8"?>
<svg width="119px" height="27px" viewBox="0 0 119 27" version="1.1" xmlns="http://www.w3.org/2000/svg" xmlns:xlink="http://www.w3.org/1999/xlink">
    <title>icon-key-object-2</title>
    <g id="icon-key-object-2" stroke="none" stroke-width="1" fill="none" fill-rule="evenodd">
        <text id="🔑" font-family="AppleColorEmoji, Apple Color Emoji" font-size="12" font-weight="normal" fill="#F0F0F0">
            <tspan x="6.5" y="18.5">🔑</tspan>
        </text>
        <g id="Combined-Shape-2" transform="translate(28.326000, 9.000000)" fill="#F0F0F0">
            <path d="M64.416,2.568 L64.416,9.3 L64.409625,9.5244375 C64.379875,10.0328125 64.246,10.434 64.008,10.728 C63.736,11.064 63.28,11.232 62.64,11.232 C62.504,11.232 62.39,11.228 62.298,11.22 C62.206,11.212 62.116,11.2 62.028,11.184 L62.028,11.184 L62.028,10.104 L62.157,10.125 L62.157,10.125 L62.28,10.14 C62.36,10.148 62.432,10.152 62.496,10.152 C62.744,10.152 62.898,10.076 62.958,9.924 C63.018,9.772 63.048,9.544 63.048,9.24 L63.048,9.24 L63.048,2.568 L64.416,2.568 Z M37.812,2.568 L39.432,7.2 L39.456,7.2 L41.028,2.568 L42.456,2.568 L40.044,9.108 L39.9326667,9.384 C39.8588889,9.56533333 39.786,9.74133333 39.714,9.912 C39.606,10.168 39.474,10.394 39.318,10.59 C39.162,10.786 38.968,10.942 38.736,11.058 C38.504,11.174 38.208,11.232 37.848,11.232 C37.528,11.232 37.212,11.208 36.9,11.16 L36.9,11.16 L36.9,10.008 L37.065,10.0335 L37.065,10.0335 L37.224,10.062 C37.328,10.082 37.436,10.092 37.548,10.092 C37.708,10.092 37.84,10.072 37.944,10.032 C38.048,9.992 38.134,9.934 38.202,9.858 C38.27,9.782 38.328,9.692 38.376,9.588 C38.424,9.484 38.468,9.364 38.508,9.228 L38.508,9.228 L38.664,8.748 L36.312,2.568 L37.812,2.568 Z M3.456,-8.8817842e-15 C3.904,-8.8817842e-15 4.326,0.058 4.722,0.174 C5.118,0.29 5.466,0.464 5.766,0.696 C6.066,0.928 6.304,1.214 6.48,1.554 C6.656,1.894 6.744,2.288 6.744,2.736 L6.744,2.736 L5.244,2.736 L5.22518519,2.558 C5.16039506,2.09933333 4.97866667,1.76866667 4.68,1.566 C4.344,1.338 3.916,1.224 3.396,1.224 C3.22,1.224 3.04,1.242 2.856,1.278 C2.672,1.314 2.504,1.374 2.352,1.458 C2.2,1.542 2.074,1.656 1.974,1.8 C1.874,1.944 1.824,2.124 1.824,2.34 C1.824,2.644 1.918,2.882 2.106,3.054 C2.294,3.226 2.54,3.356 2.844,3.444 C2.876,3.452 3.002,3.486 3.222,3.546 C3.442,3.606 3.688,3.672 3.96,3.744 C4.232,3.816 4.498,3.886 4.758,3.954 C5.018,4.022 5.204,4.072 5.316,4.104 C5.596,4.192 5.84,4.312 6.048,4.464 C6.256,4.616 6.43,4.79 6.57,4.986 C6.71,5.182 6.814,5.392 6.882,5.616 C6.95,5.84 6.984,6.064 6.984,6.288 C6.984,6.768 6.886,7.178 6.69,7.518 C6.494,7.858 6.236,8.136 5.916,8.352 C5.596,8.568 5.232,8.726 4.824,8.826 C4.416,8.926 4,8.976 3.576,8.976 C3.088,8.976 2.628,8.916 2.196,8.796 C1.764,8.676 1.388,8.492 1.068,8.244 C0.748,7.996 0.492,7.678 0.3,7.29 C0.108,6.902 0.008,6.444 -7.99360578e-15,5.916 L-7.99360578e-15,5.916 L1.5,5.916 L1.50672,6.10704 C1.52464,6.35408 1.5784,6.5704 1.668,6.756 C1.78,6.988 1.936,7.178 2.136,7.326 C2.336,7.474 2.566,7.582 2.826,7.65 C3.086,7.718 3.368,7.752 3.672,7.752 C4,7.752 4.28,7.714 4.512,7.638 C4.744,7.562 4.932,7.464 5.076,7.344 C5.22,7.224 5.324,7.086 5.388,6.93 C5.452,6.774 5.484,6.616 5.484,6.456 C5.484,6.128 5.41,5.886 5.262,5.73 C5.114,5.574 4.952,5.464 4.776,5.4 C4.472,5.288 4.118,5.182 3.714,5.082 C3.31,4.982 2.812,4.852 2.22,4.692 C1.852,4.596 1.546,4.47 1.302,4.314 C1.058,4.158 0.864,3.984 0.72,3.792 C0.576,3.6 0.474,3.396 0.414,3.18 C0.354,2.964 0.324,2.744 0.324,2.52 C0.324,2.088 0.414,1.714 0.594,1.398 C0.774,1.082 1.012,0.82 1.308,0.612 C1.604,0.404 1.94,0.25 2.316,0.15 C2.692,0.05 3.072,-8.8817842e-15 3.456,-8.8817842e-15 Z M50.4,-8.8817842e-15 C51.04,-8.8817842e-15 51.614,0.12 52.122,0.36 C52.63,0.6 53.06,0.924 53.412,1.332 C53.764,1.74 54.034,2.216 54.222,2.76 C54.41,3.304 54.504,3.88 54.504,4.488 C54.504,5.104 54.41,5.684 54.222,6.228 C54.034,6.772 53.764,7.248 53.412,7.656 C53.06,8.064 52.63,8.386 52.122,8.622 C51.614,8.858 51.04,8.976 50.4,8.976 C49.76,8.976 49.186,8.858 48.678,8.622 C48.17,8.386 47.74,8.064 47.388,7.656 C47.036,7.248 46.766,6.772 46.578,6.228 C46.39,5.684 46.296,5.104 46.296,4.488 C46.296,3.88 46.39,3.304 46.578,2.76 C46.766,2.216 47.036,1.74 47.388,1.332 C47.74,0.924 48.17,0.6 48.678,0.36 C49.186,0.12 49.76,-8.8817842e-15 50.4,-8.8817842e-15 Z M10.8,2.4 C11.288,2.4 11.726,2.502 12.114,2.706 C12.502,2.91 12.824,3.18 13.08,3.516 C13.336,3.852 13.522,4.238 13.638,4.674 C13.754,5.11 13.784,5.56 13.728,6.024 L13.728,6.024 L9.168,6.024 L9.174375,6.2025 C9.187125,6.3795 9.219,6.552 9.27,6.72 C9.338,6.944 9.44,7.14 9.576,7.308 C9.712,7.476 9.884,7.61 10.092,7.71 C10.3,7.81 10.548,7.86 10.836,7.86 C11.236,7.86 11.558,7.774 11.802,7.602 C12.046,7.43 12.228,7.172 12.348,6.828 L12.348,6.828 L13.644,6.828 L13.59456,7.02528 C13.52032,7.28256 13.4128,7.5168 13.272,7.728 C13.096,7.992 12.884,8.214 12.636,8.394 C12.388,8.574 12.11,8.71 11.802,8.802 C11.494,8.894 11.172,8.94 10.836,8.94 C10.348,8.94 9.916,8.86 9.54,8.7 C9.164,8.54 8.846,8.316 8.586,8.028 C8.326,7.74 8.13,7.396 7.998,6.996 C7.866,6.596 7.8,6.156 7.8,5.676 C7.8,5.236 7.87,4.818 8.01,4.422 C8.15,4.026 8.35,3.678 8.61,3.378 C8.87,3.078 9.184,2.84 9.552,2.664 C9.92,2.488 10.336,2.4 10.8,2.4 Z M75.336,2.4 C75.696,2.4 76.038,2.446 76.362,2.538 C76.686,2.63 76.974,2.768 77.226,2.952 C77.478,3.136 77.684,3.368 77.844,3.648 C78.004,3.928 78.1,4.26 78.132,4.644 L78.132,4.644 L76.764,4.644 L76.734,4.48518367 C76.662,4.17906122 76.518,3.942 76.302,3.774 C76.05,3.578 75.732,3.48 75.348,3.48 C75.172,3.48 74.984,3.51 74.784,3.57 C74.584,3.63 74.4,3.742 74.232,3.906 C74.064,4.07 73.924,4.298 73.812,4.59 C73.7,4.882 73.644,5.264 73.644,5.736 C73.644,5.992 73.674,6.248 73.734,6.504 C73.794,6.76 73.89,6.988 74.022,7.188 C74.154,7.388 74.324,7.55 74.532,7.674 C74.74,7.798 74.992,7.86 75.288,7.86 C75.688,7.86 76.018,7.736 76.278,7.488 C76.538,7.24 76.7,6.892 76.764,6.444 L76.764,6.444 L78.132,6.444 L78.08826,6.6807 C77.94102,7.3737 77.6496,7.9128 77.214,8.298 C76.73,8.726 76.088,8.94 75.288,8.94 C74.8,8.94 74.37,8.858 73.998,8.694 C73.626,8.53 73.312,8.306 73.056,8.022 C72.8,7.738 72.606,7.4 72.474,7.008 C72.342,6.616 72.276,6.192 72.276,5.736 C72.276,5.272 72.34,4.836 72.468,4.428 C72.596,4.02 72.788,3.666 73.044,3.366 C73.3,3.066 73.618,2.83 73.998,2.658 C74.378,2.486 74.824,2.4 75.336,2.4 Z M68.604,2.4 C69.092,2.4 69.53,2.502 69.918,2.706 C70.306,2.91 70.628,3.18 70.884,3.516 C71.14,3.852 71.326,4.238 71.442,4.674 C71.558,5.11 71.588,5.56 71.532,6.024 L71.532,6.024 L66.972,6.024 L66.978375,6.2025 C66.991125,6.3795 67.023,6.552 67.074,6.72 C67.142,6.944 67.244,7.14 67.38,7.308 C67.516,7.476 67.688,7.61 67.896,7.71 C68.104,7.81 68.352,7.86 68.64,7.86 C69.04,7.86 69.362,7.774 69.606,7.602 C69.85,7.43 70.032,7.172 70.152,6.828 L70.152,6.828 L71.448,6.828 L71.39856,7.02528 C71.32432,7.28256 71.2168,7.5168 71.076,7.728 C70.9,7.992 70.688,8.214 70.44,8.394 C70.192,8.574 69.914,8.71 69.606,8.802 C69.298,8.894 68.976,8.94 68.64,8.94 C68.152,8.94 67.72,8.86 67.344,8.7 C66.968,8.54 66.65,8.316 66.39,8.028 C66.13,7.74 65.934,7.396 65.802,6.996 C65.67,6.596 65.604,6.156 65.604,5.676 C65.604,5.236 65.674,4.818 65.814,4.422 C65.954,4.026 66.154,3.678 66.414,3.378 C66.674,3.078 66.988,2.84 67.356,2.664 C67.724,2.488 68.14,2.4 68.604,2.4 Z M57.084,0.204 L57.084,3.372 L57.108,3.372 L57.2106667,3.22533333 C57.2835556,3.13111111 57.3653333,3.044 57.456,2.964 C57.592,2.844 57.742,2.742 57.906,2.658 C58.07,2.574 58.242,2.51 58.422,2.466 C58.602,2.422 58.78,2.4 58.956,2.4 C59.444,2.4 59.87,2.486 60.234,2.658 C60.598,2.83 60.9,3.066 61.14,3.366 C61.38,3.666 61.56,4.016 61.68,4.416 C61.8,4.816 61.86,5.244 61.86,5.7 C61.86,6.116 61.806,6.52 61.698,6.912 C61.59,7.304 61.426,7.65 61.206,7.95 C60.986,8.25 60.708,8.49 60.372,8.67 C60.036,8.85 59.64,8.94 59.184,8.94 C58.976,8.94 58.766,8.926 58.554,8.898 C58.342,8.87 58.14,8.816 57.948,8.736 C57.756,8.656 57.582,8.552 57.426,8.424 C57.27,8.296 57.14,8.128 57.036,7.92 L57.036,7.92 L57.012,7.92 L57.012,8.772 L55.716,8.772 L55.716,0.204 L57.084,0.204 Z M33.024,2.4 C33.512,2.4 33.95,2.502 34.338,2.706 C34.726,2.91 35.048,3.18 35.304,3.516 C35.56,3.852 35.746,4.238 35.862,4.674 C35.978,5.11 36.008,5.56 35.952,6.024 L35.952,6.024 L31.392,6.024 L31.398375,6.2025 C31.411125,6.3795 31.443,6.552 31.494,6.72 C31.562,6.944 31.664,7.14 31.8,7.308 C31.936,7.476 32.108,7.61 32.316,7.71 C32.524,7.81 32.772,7.86 33.06,7.86 C33.46,7.86 33.782,7.774 34.026,7.602 C34.27,7.43 34.452,7.172 34.572,6.828 L34.572,6.828 L35.868,6.828 L35.81856,7.02528 C35.74432,7.28256 35.6368,7.5168 35.496,7.728 C35.32,7.992 35.108,8.214 34.86,8.394 C34.612,8.574 34.334,8.71 34.026,8.802 C33.718,8.894 33.396,8.94 33.06,8.94 C32.572,8.94 32.14,8.86 31.764,8.7 C31.388,8.54 31.07,8.316 30.81,8.028 C30.55,7.74 30.354,7.396 30.222,6.996 C30.09,6.596 30.024,6.156 30.024,5.676 C30.024,5.236 30.094,4.818 30.234,4.422 C30.374,4.026 30.574,3.678 30.834,3.378 C31.094,3.078 31.408,2.84 31.776,2.664 C32.144,2.488 32.56,2.4 33.024,2.4 Z M81.024,0.708 L81.024,2.568 L82.26,2.568 L82.26,3.588 L81.024,3.588 L81.024,6.9 L81.026,7.03733333 C81.0286667,7.12444444 81.034,7.20266667 81.042,7.272 C81.054,7.376 81.082,7.464 81.126,7.536 C81.17,7.608 81.236,7.662 81.324,7.698 C81.412,7.734 81.532,7.752 81.684,7.752 C81.78,7.752 81.876,7.75 81.972,7.746 C82.068,7.742 82.164,7.728 82.26,7.704 L82.26,7.704 L82.26,8.76 L82.035,8.784 L82.035,8.784 L81.816,8.808 C81.672,8.824 81.524,8.832 81.372,8.832 C81.012,8.832 80.722,8.798 80.502,8.73 C80.282,8.662 80.11,8.562 79.986,8.43 C79.862,8.298 79.778,8.132 79.734,7.932 C79.69,7.732 79.664,7.504 79.656,7.248 L79.656,7.248 L79.656,3.588 L78.624,3.588 L78.624,2.568 L79.656,2.568 L79.656,0.708 L81.024,0.708 Z M16.548,0.708 L16.548,2.568 L17.784,2.568 L17.784,3.588 L16.548,3.588 L16.548,6.9 L16.55,7.03733333 C16.5526667,7.12444444 16.558,7.20266667 16.566,7.272 C16.578,7.376 16.606,7.464 16.65,7.536 C16.694,7.608 16.76,7.662 16.848,7.698 C16.936,7.734 17.056,7.752 17.208,7.752 C17.304,7.752 17.4,7.75 17.496,7.746 C17.592,7.742 17.688,7.728 17.784,7.704 L17.784,7.704 L17.784,8.76 L17.559,8.784 L17.559,8.784 L17.34,8.808 C17.196,8.824 17.048,8.832 16.896,8.832 C16.536,8.832 16.246,8.798 16.026,8.73 C15.806,8.662 15.634,8.562 15.51,8.43 C15.386,8.298 15.302,8.132 15.258,7.932 C15.214,7.732 15.188,7.504 15.18,7.248 L15.18,7.248 L15.18,3.588 L14.148,3.588 L14.148,2.568 L15.18,2.568 L15.18,0.708 L16.548,0.708 Z M23.796,0.204 L23.796,4.104 L27.612,0.204 L29.46,0.204 L26.04,3.624 L29.7,8.772 L27.828,8.772 L25.02,4.68 L23.796,5.892 L23.796,8.772 L22.296,8.772 L22.296,0.204 L23.796,0.204 Z M58.776,3.48 C58.2,3.48 57.766,3.68 57.474,4.08 C57.182,4.48 57.036,5.012 57.036,5.676 C57.036,5.988 57.074,6.278 57.15,6.546 C57.226,6.814 57.34,7.044 57.492,7.236 C57.644,7.428 57.826,7.58 58.038,7.692 C58.25,7.804 58.496,7.86 58.776,7.86 C59.088,7.86 59.352,7.796 59.568,7.668 C59.784,7.54 59.962,7.374 60.102,7.17 C60.242,6.966 60.342,6.734 60.402,6.474 C60.462,6.214 60.492,5.948 60.492,5.676 C60.492,5.396 60.456,5.124 60.384,4.86 C60.312,4.596 60.204,4.362 60.06,4.158 C59.916,3.954 59.736,3.79 59.52,3.666 C59.304,3.542 59.056,3.48 58.776,3.48 Z M50.4,1.224 C49.944,1.224 49.55,1.316 49.218,1.5 C48.886,1.684 48.616,1.93 48.408,2.238 C48.2,2.546 48.046,2.896 47.946,3.288 C47.846,3.68 47.796,4.08 47.796,4.488 C47.796,4.896 47.846,5.296 47.946,5.688 C48.046,6.08 48.2,6.43 48.408,6.738 C48.616,7.046 48.886,7.292 49.218,7.476 C49.55,7.66 49.944,7.752 50.4,7.752 C50.856,7.752 51.25,7.66 51.582,7.476 C51.914,7.292 52.184,7.046 52.392,6.738 C52.6,6.43 52.754,6.08 52.854,5.688 C52.954,5.296 53.004,4.896 53.004,4.488 C53.004,4.08 52.954,3.68 52.854,3.288 C52.754,2.896 52.6,2.546 52.392,2.238 C52.184,1.93 51.914,1.684 51.582,1.5 C51.25,1.316 50.856,1.224 50.4,1.224 Z M68.604,3.48 C68.364,3.48 68.146,3.522 67.95,3.606 C67.754,3.69 67.586,3.806 67.446,3.954 C67.306,4.102 67.194,4.276 67.11,4.476 C67.026,4.676 66.98,4.892 66.972,5.124 L66.972,5.124 L70.164,5.124 C70.148,4.908 70.102,4.7 70.026,4.5 C69.95,4.3 69.846,4.126 69.714,3.978 C69.582,3.83 69.422,3.71 69.234,3.618 C69.046,3.526 68.836,3.48 68.604,3.48 Z M10.8,3.48 C10.56,3.48 10.342,3.522 10.146,3.606 C9.95,3.69 9.782,3.806 9.642,3.954 C9.502,4.102 9.39,4.276 9.306,4.476 C9.222,4.676 9.176,4.892 9.168,5.124 L9.168,5.124 L12.36,5.124 C12.344,4.908 12.298,4.7 12.222,4.5 C12.146,4.3 12.042,4.126 11.91,3.978 C11.778,3.83 11.618,3.71 11.43,3.618 C11.242,3.526 11.032,3.48 10.8,3.48 Z M33.024,3.48 C32.784,3.48 32.566,3.522 32.37,3.606 C32.174,3.69 32.006,3.806 31.866,3.954 C31.726,4.102 31.614,4.276 31.53,4.476 C31.446,4.676 31.4,4.892 31.392,5.124 L31.392,5.124 L34.584,5.124 C34.568,4.908 34.522,4.7 34.446,4.5 C34.37,4.3 34.266,4.126 34.134,3.978 C34.002,3.83 33.842,3.71 33.654,3.618 C33.466,3.526 33.256,3.48 33.024,3.48 Z M64.416,0.204 L64.416,1.5 L63.048,1.5 L63.048,0.204 L64.416,0.204 Z" id="Combined-Shape"></path>
        </g>
    </g>
</svg>