<?xml version="1.0" encoding="UTF-8"?>
<svg width="27px" height="27px" viewBox="0 0 27 27" version="1.1" xmlns="http://www.w3.org/2000/svg" xmlns:xlink="http://www.w3.org/1999/xlink">
    <title>icon-position</title>
    <g id="icon-position" stroke="none" stroke-width="1" fill="none" fill-rule="evenodd">
        <path d="M13.756,9 C14.62,9 15.274,9.222 15.718,9.666 C16.162,10.11 16.384,10.732 16.384,11.532 C16.384,12.332 16.162,12.956 15.718,13.404 C15.274,13.852 14.62,14.072 13.756,14.064 L13.756,14.064 L11.14,14.064 L11.14,17.568 L10,17.568 L10,9 Z M13.372,9.96 L11.14,9.96 L11.14,13.104 L13.372,13.104 C14.02,13.112 14.494,12.98 14.794,12.708 C15.094,12.436 15.244,12.044 15.244,11.532 C15.244,11.02 15.094,10.63 14.794,10.362 C14.494,10.094 14.02,9.96 13.372,9.96 L13.372,9.96 Z" id="Combined-Shape" fill="#F0F0F0"></path>
    </g>
</svg>