<?xml version="1.0" encoding="UTF-8"?>
<svg width="71px" height="27px" viewBox="0 0 71 27" version="1.1" xmlns="http://www.w3.org/2000/svg" xmlns:xlink="http://www.w3.org/1999/xlink">
    <title>icon-paste-name</title>
    <g id="icon-paste-name" stroke="none" stroke-width="1" fill="none" fill-rule="evenodd">
        <g id="Combined-Shape-2" transform="translate(20.820282, 9.589051)" fill="#F0F0F0">
            <path d="M10.944,2.196 C11.248,2.196 11.548,2.228 11.844,2.292 C12.14,2.356 12.406,2.46 12.642,2.604 C12.878,2.748 13.068,2.934 13.212,3.162 C13.356,3.39 13.428,3.668 13.428,3.996 L13.428,3.996 L13.428,7.188 L13.432125,7.305 C13.440375,7.413 13.461,7.494 13.494,7.548 C13.538,7.62 13.624,7.656 13.752,7.656 L13.752,7.656 L13.896,7.656 L13.9546667,7.65333333 C13.9955556,7.64977778 14.04,7.64266667 14.088,7.632 L14.088,7.632 L14.088,8.58 L14.0353333,8.59666667 C13.9971111,8.60822222 13.9526667,8.62066667 13.902,8.634 C13.826,8.654 13.748,8.672 13.668,8.688 C13.588,8.704 13.508,8.716 13.428,8.724 C13.348,8.732 13.28,8.736 13.224,8.736 C12.944,8.736 12.712,8.68 12.528,8.568 C12.344,8.456 12.224,8.26 12.168,7.98 C11.896,8.244 11.562,8.436 11.166,8.556 C10.77,8.676 10.388,8.736 10.02,8.736 C9.74,8.736 9.472,8.698 9.216,8.622 C8.96,8.546 8.734,8.434 8.538,8.286 C8.342,8.138 8.186,7.95 8.07,7.722 C7.954,7.494 7.896,7.228 7.896,6.924 C7.896,6.54 7.966,6.228 8.106,5.988 C8.246,5.748 8.43,5.56 8.658,5.424 C8.886,5.288 9.142,5.19 9.426,5.13 C9.71,5.07 9.996,5.024 10.284,4.992 C10.532,4.944 10.768,4.91 10.992,4.89 C11.216,4.87 11.414,4.836 11.586,4.788 C11.758,4.74 11.894,4.666 11.994,4.566 C12.094,4.466 12.144,4.316 12.144,4.116 C12.144,3.94 12.102,3.796 12.018,3.684 C11.934,3.572 11.83,3.486 11.706,3.426 C11.582,3.366 11.444,3.326 11.292,3.306 C11.14,3.286 10.996,3.276 10.86,3.276 C10.476,3.276 10.16,3.356 9.912,3.516 C9.664,3.676 9.524,3.924 9.492,4.26 L9.492,4.26 L8.124,4.26 L8.142,4.06566667 C8.182,3.75122222 8.272,3.484 8.412,3.264 C8.58,3 8.794,2.788 9.054,2.628 C9.314,2.468 9.608,2.356 9.936,2.292 C10.264,2.228 10.6,2.196 10.944,2.196 Z M27.444,2.196 C27.932,2.196 28.37,2.298 28.758,2.502 C29.146,2.706 29.468,2.976 29.724,3.312 C29.98,3.648 30.166,4.034 30.282,4.47 C30.398,4.906 30.428,5.356 30.372,5.82 L30.372,5.82 L25.812,5.82 L25.818375,5.9985 C25.831125,6.1755 25.863,6.348 25.914,6.516 C25.982,6.74 26.084,6.936 26.22,7.104 C26.356,7.272 26.528,7.406 26.736,7.506 C26.944,7.606 27.192,7.656 27.48,7.656 C27.88,7.656 28.202,7.57 28.446,7.398 C28.69,7.226 28.872,6.968 28.992,6.624 L28.992,6.624 L30.288,6.624 L30.23856,6.82128 C30.16432,7.07856 30.0568,7.3128 29.916,7.524 C29.74,7.788 29.528,8.01 29.28,8.19 C29.032,8.37 28.754,8.506 28.446,8.598 C28.138,8.69 27.816,8.736 27.48,8.736 C26.992,8.736 26.56,8.656 26.184,8.496 C25.808,8.336 25.49,8.112 25.23,7.824 C24.97,7.536 24.774,7.192 24.642,6.792 C24.51,6.392 24.444,5.952 24.444,5.472 C24.444,5.032 24.514,4.614 24.654,4.218 C24.794,3.822 24.994,3.474 25.254,3.174 C25.514,2.874 25.828,2.636 26.196,2.46 C26.564,2.284 26.98,2.196 27.444,2.196 Z M1.584,1.24344979e-14 L5.496,6.312 L5.52,6.312 L5.52,1.24344979e-14 L6.948,1.24344979e-14 L6.948,8.568 L5.364,8.568 L1.464,2.268 L1.428,2.268 L1.428,8.568 L2.48689958e-14,8.568 L2.48689958e-14,1.24344979e-14 L1.584,1.24344979e-14 Z M21.528,2.196 C22.184,2.196 22.694,2.356 23.058,2.676 C23.422,2.996 23.604,3.532 23.604,4.284 L23.604,4.284 L23.604,8.568 L22.236,8.568 L22.236,4.944 L22.2333333,4.70333333 C22.2297778,4.54777778 22.2226667,4.402 22.212,4.266 C22.196,4.062 22.15,3.886 22.074,3.738 C21.998,3.59 21.884,3.476 21.732,3.396 C21.58,3.316 21.372,3.276 21.108,3.276 C20.644,3.276 20.308,3.42 20.1,3.708 C19.892,3.996 19.788,4.404 19.788,4.932 L19.788,4.932 L19.788,8.568 L18.42,8.568 L18.42,4.584 L18.4152245,4.40534694 C18.3961224,4.06102041 18.3197143,3.79457143 18.186,3.606 C18.03,3.386 17.744,3.276 17.328,3.276 C17.152,3.276 16.982,3.312 16.818,3.384 C16.654,3.456 16.51,3.56 16.386,3.696 C16.262,3.832 16.162,4 16.086,4.2 C16.01,4.4 15.972,4.628 15.972,4.884 L15.972,4.884 L15.972,8.568 L14.604,8.568 L14.604,2.364 L15.9,2.364 L15.9,3.228 L15.936,3.228 L16.0426667,3.08 C16.1155556,2.984 16.192,2.89333333 16.272,2.808 C16.392,2.68 16.526,2.572 16.674,2.484 C16.822,2.396 16.992,2.326 17.184,2.274 C17.376,2.222 17.596,2.196 17.844,2.196 C18.22,2.196 18.57,2.28 18.894,2.448 C19.218,2.616 19.448,2.876 19.584,3.228 C19.816,2.908 20.084,2.656 20.388,2.472 C20.692,2.288 21.072,2.196 21.528,2.196 Z M12.06,5.46 L11.92944,5.53512 C11.74768,5.62664 11.5352,5.6836 11.292,5.706 C10.988,5.734 10.684,5.776 10.38,5.832 C10.236,5.856 10.096,5.89 9.96,5.934 C9.824,5.978 9.704,6.038 9.6,6.114 C9.496,6.19 9.414,6.29 9.354,6.414 C9.294,6.538 9.264,6.688 9.264,6.864 C9.264,7.016 9.308,7.144 9.396,7.248 C9.484,7.352 9.59,7.434 9.714,7.494 C9.838,7.554 9.974,7.596 10.122,7.62 C10.27,7.644 10.404,7.656 10.524,7.656 C10.676,7.656 10.84,7.636 11.016,7.596 C11.192,7.556 11.358,7.488 11.514,7.392 C11.67,7.296 11.8,7.174 11.904,7.026 C12.008,6.878 12.06,6.696 12.06,6.48 L12.06,6.48 L12.06,5.46 Z M27.444,3.276 C27.204,3.276 26.986,3.318 26.79,3.402 C26.594,3.486 26.426,3.602 26.286,3.75 C26.146,3.898 26.034,4.072 25.95,4.272 C25.866,4.472 25.82,4.688 25.812,4.92 L25.812,4.92 L29.004,4.92 C28.988,4.704 28.942,4.496 28.866,4.296 C28.79,4.096 28.686,3.922 28.554,3.774 C28.422,3.626 28.262,3.506 28.074,3.414 C27.886,3.322 27.676,3.276 27.444,3.276 Z" id="Combined-Shape"></path>
        </g>
    </g>
</svg>