<?xml version="1.0" encoding="UTF-8"?>
<svg width="27px" height="27px" viewBox="0 0 27 27" version="1.1" xmlns="http://www.w3.org/2000/svg" xmlns:xlink="http://www.w3.org/1999/xlink">
    <title>icon-resizing</title>
    <g id="icon-resizing" stroke="none" stroke-width="1" fill="none" fill-rule="evenodd">
        <path d="M14.092,9 L14.3436033,9.00505785 C15.1627769,9.03877686 15.7869091,9.24109091 16.216,9.612 C16.688,10.02 16.924,10.588 16.924,11.316 C16.924,11.724 16.864,12.062 16.744,12.33 C16.624,12.598 16.484,12.814 16.324,12.978 C16.164,13.142 16.006,13.26 15.85,13.332 C15.694,13.404 15.58,13.452 15.508,13.476 L15.508,13.476 L15.508,13.5 L15.6393333,13.524 C15.7291111,13.5453333 15.8233333,13.5773333 15.922,13.62 C16.07,13.684 16.208,13.786 16.336,13.926 C16.464,14.066 16.57,14.248 16.654,14.472 C16.738,14.696 16.78,14.976 16.78,15.312 C16.78,15.816 16.818,16.274 16.894,16.686 C16.97,17.098 17.088,17.392 17.248,17.568 L17.248,17.568 L15.64,17.568 L15.564625,17.42625 C15.497875,17.28075 15.457,17.124 15.442,16.956 C15.422,16.732 15.412,16.516 15.412,16.308 C15.412,15.916 15.388,15.578 15.34,15.294 C15.292,15.01 15.204,14.774 15.076,14.586 C14.948,14.398 14.774,14.26 14.554,14.172 C14.334,14.084 14.052,14.04 13.708,14.04 L13.708,14.04 L11.5,14.04 L11.5,17.568 L10,17.568 L10,9 L14.092,9 Z M13.936,10.224 L11.5,10.224 L11.5,12.9 L13.96,12.9 C14.44,12.9 14.804,12.786 15.052,12.558 C15.3,12.33 15.424,11.988 15.424,11.532 C15.424,11.26 15.384,11.038 15.304,10.866 C15.224,10.694 15.114,10.56 14.974,10.464 C14.834,10.368 14.674,10.304 14.494,10.272 C14.314,10.24 14.128,10.224 13.936,10.224 L13.936,10.224 Z" id="Combined-Shape" fill="#F0F0F0"></path>
    </g>
</svg>